<svg xmlns="http://www.w3.org/2000/svg" viewBox="0 0 16 12">
  <path class="svg-fill" d="M13.66,2.44a4.67,4.67,0,0,1-1.34.37,2.4,2.4,0,0,0,1-1.3,4.63,4.63,0,0,1-1.48.57,2.3,2.3,0,0,0-1.7-.74A2.34,2.34,0,0,0,7.85,3.69a2.37,2.37,0,0,0,.06.54A6.56,6.56,0,0,1,3.12,1.77a2.36,2.36,0,0,0,.72,3.15,2.32,2.32,0,0,1-1.06-.3v0A2.35,2.35,0,0,0,4.65,7,2.32,2.32,0,0,1,4,7,2.27,2.27,0,0,1,3.6,7,2.32,2.32,0,0,0,5.77,8.63a4.65,4.65,0,0,1-3.44,1,6.51,6.51,0,0,0,3.56,1.06A6.62,6.62,0,0,0,12.51,4V4c0-.1,0-.2,0-.3a4.81,4.81,0,0,0,1.16-1.22h0Z"/>
</svg>