<svg xmlns="http://www.w3.org/2000/svg" width="16.094" height="19.94" viewBox="0 0 16.094 19.94">
  <path d="M775.338,1175.57a4.536,4.536,0,0,1,2.138-3.8,4.6,4.6,0,0,0-3.62-1.98c-1.523-.16-3,0.92-3.776.92-0.791,0-1.986-.9-3.274-0.87a4.8,4.8,0,0,0-4.057,2.49c-1.754,3.07-.445,7.57,1.235,10.05,0.841,1.22,1.824,2.57,3.11,2.52,1.258-.05,1.728-0.81,3.246-0.81s1.946,0.81,3.257.78c1.351-.02,2.2-1.22,3.012-2.44a10.03,10.03,0,0,0,1.377-2.83A4.376,4.376,0,0,1,775.338,1175.57Zm-2.477-7.41a1.793,1.793,0,1,0-1.9-1.67,4.244,4.244,0,0,0-1.038,3.07A3.684,3.684,0,0,0,772.861,1168.16Z" transform="translate(-761.906 -1164.97)"/>
</svg>